<svg id="hospital" width="32px" height="32px" viewBox="4 4 18 18" version="1.1" xmlns="http://www.w3.org/2000/svg" xmlns:xlink="http://www.w3.org/1999/xlink" style="fill-rule:evenodd;clip-rule:evenodd;stroke-miterlimit:10;">
  <g transform="matrix(1,0,0,1,-143.475,-174.472)">
      <g transform="matrix(1,0,0,1,160.5,179.497)">
          <path d="M0,16L-8,16C-10.209,16 -12,14.209 -12,12L-12,4C-12,1.791 -10.209,0 -8,0L0,0C2.209,0 4,1.791 4,4L4,12C4,14.209 2.209,16 0,16Z" style="fill:rgb(239,216,217);fill-rule:nonzero;stroke:rgb(216,30,58);stroke-width:1px;"/>
      </g>
      <g transform="matrix(1,0,0,1,154.5,185.497)">
          <path d="M0,4L-3,4L-3,0L0,0L0,-3L4,-3L4,0L7,0L7,4L4,4L4,7L0,7L0,4Z" style="fill:rgb(234,101,107);fill-rule:nonzero;stroke:white;stroke-width:1px;"/>
      </g>
  </g>
</svg>