<svg id="pharmacy" width="32px" height="32px" viewBox="0 0 20 20" version="1.1" xmlns="http://www.w3.org/2000/svg" style="fill-rule:evenodd;clip-rule:evenodd;stroke-linecap:round;stroke-linejoin:round;stroke-miterlimit:10;">
  <g transform="matrix(1,0,0,1,-271.475,-175.472)">
      <g transform="matrix(1,0,0,1,286.5,176.497)">
          <path d="M0,18L-10,18C-12.209,18 -14,16.209 -14,14L-14,4C-14,1.791 -12.209,0 -10,0L0,0C2.209,0 4,1.791 4,4L4,14C4,16.209 2.209,18 0,18Z" style="fill:rgb(233,244,190);fill-rule:nonzero;stroke:rgb(92,71,59);stroke-width:1px;"/>
      </g>
      <g transform="matrix(1,0,0,1,279.5,183.496)">
          <path d="M0,4.001L-3,4.001L-3,0.001L0,0.001L0,-2.999L4,-2.999L4,0.001L7,0.001L7,4.001L4,4.001L4,7L0,7L0,4.001Z" style="fill:rgb(97,209,97);fill-rule:nonzero;stroke:rgb(55,107,24);stroke-width:1px;stroke-linecap:butt;stroke-linejoin:miter;"/>
      </g>
  </g>
</svg>